<svg width="94" height="24" viewBox="0 0 94 24" fill="none" xmlns="http://www.w3.org/2000/svg">
<path fill-rule="evenodd" clip-rule="evenodd" d="M10 22C15.5229 22 20 17.5228 20 12C20 6.47716 15.5229 2 10 2C4.47714 2 0 6.47716 0 12C0 17.5228 4.47714 22 10 22ZM13.1197 6.65842C13.2715 6.11903 12.7481 5.80007 12.27 6.14065L5.59656 10.8948C5.07811 11.2641 5.15966 12 5.71906 12H7.47636V11.9864H10.9013L8.11061 12.971L6.88036 17.3416C6.72851 17.881 7.25191 18.1999 7.73001 17.8593L14.4035 13.1052C14.9219 12.7359 14.8403 12 14.281 12H11.6161L13.1197 6.65842Z" fill="#F15757"/>
<path d="M29.5384 19L25.3764 4.45455H28.7358L31.1435 14.5611H31.2642L33.9205 4.45455H36.7969L39.446 14.5824H39.5739L41.9815 4.45455H45.3409L41.179 19H38.1818L35.4119 9.49006H35.2983L32.5355 19H29.5384ZM46.93 19V8.09091H49.9556V19H46.93ZM48.4499 6.68466C48.0001 6.68466 47.6142 6.53551 47.2923 6.23722C46.975 5.93419 46.8164 5.57197 46.8164 5.15057C46.8164 4.7339 46.975 4.37642 47.2923 4.07812C47.6142 3.77509 48.0001 3.62358 48.4499 3.62358C48.8997 3.62358 49.2833 3.77509 49.6005 4.07812C49.9225 4.37642 50.0835 4.7339 50.0835 5.15057C50.0835 5.57197 49.9225 5.93419 49.6005 6.23722C49.2833 6.53551 48.8997 6.68466 48.4499 6.68466ZM61.456 11.2017L58.6861 11.3722C58.6387 11.1354 58.5369 10.9223 58.3807 10.733C58.2244 10.5388 58.0185 10.3849 57.7628 10.2713C57.5118 10.1529 57.2112 10.0938 56.8608 10.0938C56.392 10.0938 55.9967 10.1932 55.6747 10.392C55.3527 10.5862 55.1918 10.8466 55.1918 11.1733C55.1918 11.4337 55.2959 11.6539 55.5043 11.8338C55.7126 12.0137 56.0701 12.1581 56.5767 12.267L58.5511 12.6648C59.6117 12.8826 60.4025 13.233 60.9233 13.7159C61.4441 14.1989 61.7045 14.8333 61.7045 15.6193C61.7045 16.3343 61.4938 16.9616 61.0724 17.5014C60.6558 18.0412 60.0829 18.4626 59.3537 18.7656C58.6293 19.0639 57.7936 19.2131 56.8466 19.2131C55.4025 19.2131 54.2519 18.9124 53.3949 18.3111C52.5426 17.705 52.0431 16.8812 51.8963 15.8395L54.8722 15.6832C54.9621 16.1236 55.1799 16.4598 55.5256 16.6918C55.8712 16.919 56.3139 17.0327 56.8537 17.0327C57.384 17.0327 57.8101 16.9309 58.1321 16.7273C58.4588 16.5189 58.6245 16.2514 58.6293 15.9247C58.6245 15.6501 58.5085 15.4252 58.2812 15.25C58.054 15.0701 57.7036 14.9328 57.2301 14.8381L55.3409 14.4616C54.2756 14.2486 53.4825 13.8793 52.9616 13.3537C52.4455 12.8281 52.1875 12.1581 52.1875 11.3438C52.1875 10.643 52.3769 10.0393 52.7557 9.53267C53.1392 9.02604 53.6766 8.63542 54.3679 8.3608C55.0639 8.08617 55.8783 7.94886 56.8111 7.94886C58.1889 7.94886 59.2732 8.24006 60.0639 8.82244C60.8594 9.40483 61.3234 10.1979 61.456 11.2017ZM66.7205 19.206C66.0245 19.206 65.4042 19.0852 64.8597 18.8438C64.3152 18.5975 63.8844 18.2353 63.5671 17.7571C63.2546 17.2741 63.0984 16.6728 63.0984 15.9531C63.0984 15.3471 63.2096 14.8381 63.4322 14.4261C63.6547 14.0142 63.9577 13.6828 64.3413 13.4318C64.7248 13.1809 65.1604 12.9915 65.6481 12.8636C66.1405 12.7358 66.6566 12.6458 67.1964 12.5938C67.8308 12.5275 68.3422 12.4659 68.7305 12.4091C69.1187 12.3475 69.4005 12.2576 69.5756 12.1392C69.7508 12.0208 69.8384 11.8456 69.8384 11.6136V11.571C69.8384 11.1212 69.6964 10.7732 69.4123 10.527C69.1329 10.2808 68.7352 10.1577 68.2191 10.1577C67.6746 10.1577 67.2414 10.2784 66.9194 10.5199C66.5974 10.7566 66.3844 11.0549 66.2802 11.4148L63.4819 11.1875C63.6239 10.5246 63.9033 9.9517 64.32 9.46875C64.7366 8.98106 65.274 8.60701 65.9322 8.34659C66.5951 8.08144 67.3621 7.94886 68.2333 7.94886C68.8394 7.94886 69.4194 8.01989 69.9734 8.16193C70.5321 8.30398 71.0269 8.52415 71.4577 8.82244C71.8933 9.12074 72.2366 9.50426 72.4876 9.97301C72.7385 10.437 72.864 10.9934 72.864 11.642V19H69.9947V17.4872H69.9094C69.7343 17.8281 69.4999 18.1288 69.2063 18.3892C68.9128 18.6449 68.56 18.8461 68.1481 18.9929C67.7362 19.1349 67.2603 19.206 66.7205 19.206ZM67.587 17.1179C68.0321 17.1179 68.4251 17.0303 68.766 16.8551C69.1069 16.6752 69.3744 16.4337 69.5685 16.1307C69.7627 15.8277 69.8597 15.4844 69.8597 15.1009V13.9432C69.765 14.0047 69.6348 14.0616 69.4691 14.1136C69.3081 14.161 69.1258 14.206 68.9222 14.2486C68.7186 14.2865 68.515 14.322 68.3114 14.3551C68.1078 14.3835 67.9232 14.4096 67.7575 14.4332C67.4023 14.4853 67.0922 14.5682 66.8271 14.6818C66.5619 14.7955 66.3559 14.9493 66.2092 15.1435C66.0624 15.3329 65.989 15.5696 65.989 15.8537C65.989 16.2656 66.1381 16.5805 66.4364 16.7983C66.7395 17.0114 67.123 17.1179 67.587 17.1179ZM81.0138 8.09091V10.3636H74.4442V8.09091H81.0138ZM75.9357 5.47727H78.9613V15.6477C78.9613 15.9271 79.0039 16.1449 79.0891 16.3011C79.1744 16.4527 79.2927 16.5592 79.4442 16.6207C79.6005 16.6823 79.7804 16.7131 79.984 16.7131C80.1261 16.7131 80.2681 16.7012 80.4102 16.6776C80.5522 16.6491 80.6611 16.6278 80.7369 16.6136L81.2127 18.8651C81.0612 18.9124 80.8481 18.9669 80.5735 19.0284C80.2989 19.0947 79.9651 19.1349 79.5721 19.1491C78.8429 19.1776 78.2037 19.0805 77.6545 18.858C77.11 18.6354 76.6862 18.2898 76.3832 17.821C76.0801 17.3523 75.931 16.7604 75.9357 16.0455V5.47727ZM86.0955 19.206C85.3995 19.206 84.7792 19.0852 84.2347 18.8438C83.6902 18.5975 83.2594 18.2353 82.9421 17.7571C82.6296 17.2741 82.4734 16.6728 82.4734 15.9531C82.4734 15.3471 82.5846 14.8381 82.8072 14.4261C83.0297 14.0142 83.3327 13.6828 83.7163 13.4318C84.0998 13.1809 84.5354 12.9915 85.0231 12.8636C85.5155 12.7358 86.0316 12.6458 86.5714 12.5938C87.2058 12.5275 87.7172 12.4659 88.1055 12.4091C88.4937 12.3475 88.7755 12.2576 88.9506 12.1392C89.1258 12.0208 89.2134 11.8456 89.2134 11.6136V11.571C89.2134 11.1212 89.0714 10.7732 88.7873 10.527C88.5079 10.2808 88.1102 10.1577 87.5941 10.1577C87.0496 10.1577 86.6164 10.2784 86.2944 10.5199C85.9724 10.7566 85.7594 11.0549 85.6552 11.4148L82.8569 11.1875C82.9989 10.5246 83.2783 9.9517 83.695 9.46875C84.1116 8.98106 84.649 8.60701 85.3072 8.34659C85.9701 8.08144 86.7371 7.94886 87.6083 7.94886C88.2144 7.94886 88.7944 8.01989 89.3484 8.16193C89.9071 8.30398 90.4019 8.52415 90.8327 8.82244C91.2683 9.12074 91.6116 9.50426 91.8626 9.97301C92.1135 10.437 92.239 10.9934 92.239 11.642V19H89.3697V17.4872H89.2844C89.1093 17.8281 88.8749 18.1288 88.5813 18.3892C88.2878 18.6449 87.935 18.8461 87.5231 18.9929C87.1112 19.1349 86.6353 19.206 86.0955 19.206ZM86.962 17.1179C87.4071 17.1179 87.8001 17.0303 88.141 16.8551C88.4819 16.6752 88.7494 16.4337 88.9435 16.1307C89.1377 15.8277 89.2347 15.4844 89.2347 15.1009V13.9432C89.14 14.0047 89.0098 14.0616 88.8441 14.1136C88.6831 14.161 88.5008 14.206 88.2972 14.2486C88.0936 14.2865 87.89 14.322 87.6864 14.3551C87.4828 14.3835 87.2982 14.4096 87.1325 14.4332C86.7773 14.4853 86.4672 14.5682 86.2021 14.6818C85.9369 14.7955 85.7309 14.9493 85.5842 15.1435C85.4374 15.3329 85.364 15.5696 85.364 15.8537C85.364 16.2656 85.5131 16.5805 85.8114 16.7983C86.1145 17.0114 86.498 17.1179 86.962 17.1179Z" fill="black"/>
</svg>
